G04 #@! TF.GenerationSoftware,KiCad,Pcbnew,(6.0.11)*
G04 #@! TF.CreationDate,2023-02-10T17:49:21-04:00*
G04 #@! TF.ProjectId,simon_dice_2_layer,73696d6f-6e5f-4646-9963-655f325f6c61,rev?*
G04 #@! TF.SameCoordinates,Original*
G04 #@! TF.FileFunction,Legend,Top*
G04 #@! TF.FilePolarity,Positive*
%FSLAX46Y46*%
G04 Gerber Fmt 4.6, Leading zero omitted, Abs format (unit mm)*
G04 Created by KiCad (PCBNEW (6.0.11)) date 2023-02-10 17:49:21*
%MOMM*%
%LPD*%
G01*
G04 APERTURE LIST*
G04 Aperture macros list*
%AMRoundRect*
0 Rectangle with rounded corners*
0 $1 Rounding radius*
0 $2 $3 $4 $5 $6 $7 $8 $9 X,Y pos of 4 corners*
0 Add a 4 corners polygon primitive as box body*
4,1,4,$2,$3,$4,$5,$6,$7,$8,$9,$2,$3,0*
0 Add four circle primitives for the rounded corners*
1,1,$1+$1,$2,$3*
1,1,$1+$1,$4,$5*
1,1,$1+$1,$6,$7*
1,1,$1+$1,$8,$9*
0 Add four rect primitives between the rounded corners*
20,1,$1+$1,$2,$3,$4,$5,0*
20,1,$1+$1,$4,$5,$6,$7,0*
20,1,$1+$1,$6,$7,$8,$9,0*
20,1,$1+$1,$8,$9,$2,$3,0*%
G04 Aperture macros list end*
%ADD10C,0.150000*%
%ADD11C,0.120000*%
%ADD12C,0.127000*%
%ADD13C,0.200000*%
%ADD14C,1.400000*%
%ADD15O,1.400000X1.400000*%
%ADD16O,3.048000X1.850000*%
%ADD17R,1.800000X1.800000*%
%ADD18C,1.800000*%
%ADD19R,1.600000X1.600000*%
%ADD20C,1.600000*%
%ADD21O,1.600000X1.600000*%
%ADD22R,0.800000X1.600000*%
%ADD23C,1.362000*%
%ADD24R,1.130000X1.130000*%
%ADD25C,1.130000*%
%ADD26RoundRect,0.249999X0.790001X1.550001X-0.790001X1.550001X-0.790001X-1.550001X0.790001X-1.550001X0*%
%ADD27O,2.080000X3.600000*%
%ADD28R,2.000000X2.000000*%
%ADD29C,2.000000*%
G04 APERTURE END LIST*
D10*
X172633333Y-88252380D02*
X172300000Y-87776190D01*
X172061904Y-88252380D02*
X172061904Y-87252380D01*
X172442857Y-87252380D01*
X172538095Y-87300000D01*
X172585714Y-87347619D01*
X172633333Y-87442857D01*
X172633333Y-87585714D01*
X172585714Y-87680952D01*
X172538095Y-87728571D01*
X172442857Y-87776190D01*
X172061904Y-87776190D01*
X173490476Y-87252380D02*
X173300000Y-87252380D01*
X173204761Y-87300000D01*
X173157142Y-87347619D01*
X173061904Y-87490476D01*
X173014285Y-87680952D01*
X173014285Y-88061904D01*
X173061904Y-88157142D01*
X173109523Y-88204761D01*
X173204761Y-88252380D01*
X173395238Y-88252380D01*
X173490476Y-88204761D01*
X173538095Y-88157142D01*
X173585714Y-88061904D01*
X173585714Y-87823809D01*
X173538095Y-87728571D01*
X173490476Y-87680952D01*
X173395238Y-87633333D01*
X173204761Y-87633333D01*
X173109523Y-87680952D01*
X173061904Y-87728571D01*
X173014285Y-87823809D01*
X139906666Y-111989761D02*
X140049523Y-112037380D01*
X140287619Y-112037380D01*
X140382857Y-111989761D01*
X140430476Y-111942142D01*
X140478095Y-111846904D01*
X140478095Y-111751666D01*
X140430476Y-111656428D01*
X140382857Y-111608809D01*
X140287619Y-111561190D01*
X140097142Y-111513571D01*
X140001904Y-111465952D01*
X139954285Y-111418333D01*
X139906666Y-111323095D01*
X139906666Y-111227857D01*
X139954285Y-111132619D01*
X140001904Y-111085000D01*
X140097142Y-111037380D01*
X140335238Y-111037380D01*
X140478095Y-111085000D01*
X140811428Y-111037380D02*
X141049523Y-112037380D01*
X141240000Y-111323095D01*
X141430476Y-112037380D01*
X141668571Y-111037380D01*
X142573333Y-112037380D02*
X142001904Y-112037380D01*
X142287619Y-112037380D02*
X142287619Y-111037380D01*
X142192380Y-111180238D01*
X142097142Y-111275476D01*
X142001904Y-111323095D01*
X127771904Y-99292380D02*
X127771904Y-98292380D01*
X128010000Y-98292380D01*
X128152857Y-98340000D01*
X128248095Y-98435238D01*
X128295714Y-98530476D01*
X128343333Y-98720952D01*
X128343333Y-98863809D01*
X128295714Y-99054285D01*
X128248095Y-99149523D01*
X128152857Y-99244761D01*
X128010000Y-99292380D01*
X127771904Y-99292380D01*
X129200476Y-98625714D02*
X129200476Y-99292380D01*
X128962380Y-98244761D02*
X128724285Y-98959047D01*
X129343333Y-98959047D01*
X146680133Y-94276580D02*
X146346800Y-93800390D01*
X146108704Y-94276580D02*
X146108704Y-93276580D01*
X146489657Y-93276580D01*
X146584895Y-93324200D01*
X146632514Y-93371819D01*
X146680133Y-93467057D01*
X146680133Y-93609914D01*
X146632514Y-93705152D01*
X146584895Y-93752771D01*
X146489657Y-93800390D01*
X146108704Y-93800390D01*
X147584895Y-93276580D02*
X147108704Y-93276580D01*
X147061085Y-93752771D01*
X147108704Y-93705152D01*
X147203942Y-93657533D01*
X147442038Y-93657533D01*
X147537276Y-93705152D01*
X147584895Y-93752771D01*
X147632514Y-93848009D01*
X147632514Y-94086104D01*
X147584895Y-94181342D01*
X147537276Y-94228961D01*
X147442038Y-94276580D01*
X147203942Y-94276580D01*
X147108704Y-94228961D01*
X147061085Y-94181342D01*
X176026666Y-126564761D02*
X176169523Y-126612380D01*
X176407619Y-126612380D01*
X176502857Y-126564761D01*
X176550476Y-126517142D01*
X176598095Y-126421904D01*
X176598095Y-126326666D01*
X176550476Y-126231428D01*
X176502857Y-126183809D01*
X176407619Y-126136190D01*
X176217142Y-126088571D01*
X176121904Y-126040952D01*
X176074285Y-125993333D01*
X176026666Y-125898095D01*
X176026666Y-125802857D01*
X176074285Y-125707619D01*
X176121904Y-125660000D01*
X176217142Y-125612380D01*
X176455238Y-125612380D01*
X176598095Y-125660000D01*
X176931428Y-125612380D02*
X177169523Y-126612380D01*
X177360000Y-125898095D01*
X177550476Y-126612380D01*
X177788571Y-125612380D01*
X178121904Y-125707619D02*
X178169523Y-125660000D01*
X178264761Y-125612380D01*
X178502857Y-125612380D01*
X178598095Y-125660000D01*
X178645714Y-125707619D01*
X178693333Y-125802857D01*
X178693333Y-125898095D01*
X178645714Y-126040952D01*
X178074285Y-126612380D01*
X178693333Y-126612380D01*
X190166904Y-117732380D02*
X190166904Y-116732380D01*
X190405000Y-116732380D01*
X190547857Y-116780000D01*
X190643095Y-116875238D01*
X190690714Y-116970476D01*
X190738333Y-117160952D01*
X190738333Y-117303809D01*
X190690714Y-117494285D01*
X190643095Y-117589523D01*
X190547857Y-117684761D01*
X190405000Y-117732380D01*
X190166904Y-117732380D01*
X191119285Y-116827619D02*
X191166904Y-116780000D01*
X191262142Y-116732380D01*
X191500238Y-116732380D01*
X191595476Y-116780000D01*
X191643095Y-116827619D01*
X191690714Y-116922857D01*
X191690714Y-117018095D01*
X191643095Y-117160952D01*
X191071666Y-117732380D01*
X191690714Y-117732380D01*
X127743333Y-95372380D02*
X127410000Y-94896190D01*
X127171904Y-95372380D02*
X127171904Y-94372380D01*
X127552857Y-94372380D01*
X127648095Y-94420000D01*
X127695714Y-94467619D01*
X127743333Y-94562857D01*
X127743333Y-94705714D01*
X127695714Y-94800952D01*
X127648095Y-94848571D01*
X127552857Y-94896190D01*
X127171904Y-94896190D01*
X128600476Y-94705714D02*
X128600476Y-95372380D01*
X128362380Y-94324761D02*
X128124285Y-95039047D01*
X128743333Y-95039047D01*
X175981666Y-109004761D02*
X176124523Y-109052380D01*
X176362619Y-109052380D01*
X176457857Y-109004761D01*
X176505476Y-108957142D01*
X176553095Y-108861904D01*
X176553095Y-108766666D01*
X176505476Y-108671428D01*
X176457857Y-108623809D01*
X176362619Y-108576190D01*
X176172142Y-108528571D01*
X176076904Y-108480952D01*
X176029285Y-108433333D01*
X175981666Y-108338095D01*
X175981666Y-108242857D01*
X176029285Y-108147619D01*
X176076904Y-108100000D01*
X176172142Y-108052380D01*
X176410238Y-108052380D01*
X176553095Y-108100000D01*
X176886428Y-108052380D02*
X177124523Y-109052380D01*
X177315000Y-108338095D01*
X177505476Y-109052380D01*
X177743571Y-108052380D01*
X178029285Y-108052380D02*
X178648333Y-108052380D01*
X178315000Y-108433333D01*
X178457857Y-108433333D01*
X178553095Y-108480952D01*
X178600714Y-108528571D01*
X178648333Y-108623809D01*
X178648333Y-108861904D01*
X178600714Y-108957142D01*
X178553095Y-109004761D01*
X178457857Y-109052380D01*
X178172142Y-109052380D01*
X178076904Y-109004761D01*
X178029285Y-108957142D01*
X140101666Y-94049761D02*
X140244523Y-94097380D01*
X140482619Y-94097380D01*
X140577857Y-94049761D01*
X140625476Y-94002142D01*
X140673095Y-93906904D01*
X140673095Y-93811666D01*
X140625476Y-93716428D01*
X140577857Y-93668809D01*
X140482619Y-93621190D01*
X140292142Y-93573571D01*
X140196904Y-93525952D01*
X140149285Y-93478333D01*
X140101666Y-93383095D01*
X140101666Y-93287857D01*
X140149285Y-93192619D01*
X140196904Y-93145000D01*
X140292142Y-93097380D01*
X140530238Y-93097380D01*
X140673095Y-93145000D01*
X141006428Y-93097380D02*
X141244523Y-94097380D01*
X141435000Y-93383095D01*
X141625476Y-94097380D01*
X141863571Y-93097380D01*
X142673095Y-93430714D02*
X142673095Y-94097380D01*
X142435000Y-93049761D02*
X142196904Y-93764047D01*
X142815952Y-93764047D01*
X190143333Y-114172380D02*
X189810000Y-113696190D01*
X189571904Y-114172380D02*
X189571904Y-113172380D01*
X189952857Y-113172380D01*
X190048095Y-113220000D01*
X190095714Y-113267619D01*
X190143333Y-113362857D01*
X190143333Y-113505714D01*
X190095714Y-113600952D01*
X190048095Y-113648571D01*
X189952857Y-113696190D01*
X189571904Y-113696190D01*
X190524285Y-113267619D02*
X190571904Y-113220000D01*
X190667142Y-113172380D01*
X190905238Y-113172380D01*
X191000476Y-113220000D01*
X191048095Y-113267619D01*
X191095714Y-113362857D01*
X191095714Y-113458095D01*
X191048095Y-113600952D01*
X190476666Y-114172380D01*
X191095714Y-114172380D01*
X139936080Y-86944204D02*
X140745604Y-86944204D01*
X140840842Y-86896585D01*
X140888461Y-86848966D01*
X140936080Y-86753728D01*
X140936080Y-86563252D01*
X140888461Y-86468014D01*
X140840842Y-86420395D01*
X140745604Y-86372776D01*
X139936080Y-86372776D01*
X139936080Y-85991823D02*
X139936080Y-85372776D01*
X140317033Y-85706109D01*
X140317033Y-85563252D01*
X140364652Y-85468014D01*
X140412271Y-85420395D01*
X140507509Y-85372776D01*
X140745604Y-85372776D01*
X140840842Y-85420395D01*
X140888461Y-85468014D01*
X140936080Y-85563252D01*
X140936080Y-85848966D01*
X140888461Y-85944204D01*
X140840842Y-85991823D01*
X111405714Y-64876666D02*
X111881904Y-64876666D01*
X111310476Y-65162380D02*
X111643809Y-64162380D01*
X111977142Y-65162380D01*
X112834285Y-65162380D02*
X112262857Y-65162380D01*
X112548571Y-65162380D02*
X112548571Y-64162380D01*
X112453333Y-64305238D01*
X112358095Y-64400476D01*
X112262857Y-64448095D01*
X110858095Y-104802380D02*
X110858095Y-105611904D01*
X110905714Y-105707142D01*
X110953333Y-105754761D01*
X111048571Y-105802380D01*
X111239047Y-105802380D01*
X111334285Y-105754761D01*
X111381904Y-105707142D01*
X111429523Y-105611904D01*
X111429523Y-104802380D01*
X111858095Y-105754761D02*
X112000952Y-105802380D01*
X112239047Y-105802380D01*
X112334285Y-105754761D01*
X112381904Y-105707142D01*
X112429523Y-105611904D01*
X112429523Y-105516666D01*
X112381904Y-105421428D01*
X112334285Y-105373809D01*
X112239047Y-105326190D01*
X112048571Y-105278571D01*
X111953333Y-105230952D01*
X111905714Y-105183333D01*
X111858095Y-105088095D01*
X111858095Y-104992857D01*
X111905714Y-104897619D01*
X111953333Y-104850000D01*
X112048571Y-104802380D01*
X112286666Y-104802380D01*
X112429523Y-104850000D01*
X113191428Y-105278571D02*
X113334285Y-105326190D01*
X113381904Y-105373809D01*
X113429523Y-105469047D01*
X113429523Y-105611904D01*
X113381904Y-105707142D01*
X113334285Y-105754761D01*
X113239047Y-105802380D01*
X112858095Y-105802380D01*
X112858095Y-104802380D01*
X113191428Y-104802380D01*
X113286666Y-104850000D01*
X113334285Y-104897619D01*
X113381904Y-104992857D01*
X113381904Y-105088095D01*
X113334285Y-105183333D01*
X113286666Y-105230952D01*
X113191428Y-105278571D01*
X112858095Y-105278571D01*
X136932738Y-51166666D02*
X136885119Y-51309523D01*
X136885119Y-51547619D01*
X136932738Y-51642857D01*
X136980357Y-51690476D01*
X137075595Y-51738095D01*
X137170833Y-51738095D01*
X137266071Y-51690476D01*
X137313690Y-51642857D01*
X137361309Y-51547619D01*
X137408928Y-51357142D01*
X137456547Y-51261904D01*
X137504166Y-51214285D01*
X137599404Y-51166666D01*
X137694642Y-51166666D01*
X137789880Y-51214285D01*
X137837500Y-51261904D01*
X137885119Y-51357142D01*
X137885119Y-51595238D01*
X137837500Y-51738095D01*
X137885119Y-52071428D02*
X136885119Y-52309523D01*
X137599404Y-52500000D01*
X136885119Y-52690476D01*
X137885119Y-52928571D01*
X137885119Y-53785714D02*
X137885119Y-53309523D01*
X137408928Y-53261904D01*
X137456547Y-53309523D01*
X137504166Y-53404761D01*
X137504166Y-53642857D01*
X137456547Y-53738095D01*
X137408928Y-53785714D01*
X137313690Y-53833333D01*
X137075595Y-53833333D01*
X136980357Y-53785714D01*
X136932738Y-53738095D01*
X136885119Y-53642857D01*
X136885119Y-53404761D01*
X136932738Y-53309523D01*
X136980357Y-53261904D01*
X189343333Y-95772380D02*
X189010000Y-95296190D01*
X188771904Y-95772380D02*
X188771904Y-94772380D01*
X189152857Y-94772380D01*
X189248095Y-94820000D01*
X189295714Y-94867619D01*
X189343333Y-94962857D01*
X189343333Y-95105714D01*
X189295714Y-95200952D01*
X189248095Y-95248571D01*
X189152857Y-95296190D01*
X188771904Y-95296190D01*
X189676666Y-94772380D02*
X190295714Y-94772380D01*
X189962380Y-95153333D01*
X190105238Y-95153333D01*
X190200476Y-95200952D01*
X190248095Y-95248571D01*
X190295714Y-95343809D01*
X190295714Y-95581904D01*
X190248095Y-95677142D01*
X190200476Y-95724761D01*
X190105238Y-95772380D01*
X189819523Y-95772380D01*
X189724285Y-95724761D01*
X189676666Y-95677142D01*
X181092380Y-61406904D02*
X181901904Y-61406904D01*
X181997142Y-61359285D01*
X182044761Y-61311666D01*
X182092380Y-61216428D01*
X182092380Y-61025952D01*
X182044761Y-60930714D01*
X181997142Y-60883095D01*
X181901904Y-60835476D01*
X181092380Y-60835476D01*
X181187619Y-60406904D02*
X181140000Y-60359285D01*
X181092380Y-60264047D01*
X181092380Y-60025952D01*
X181140000Y-59930714D01*
X181187619Y-59883095D01*
X181282857Y-59835476D01*
X181378095Y-59835476D01*
X181520952Y-59883095D01*
X182092380Y-60454523D01*
X182092380Y-59835476D01*
X127743333Y-112772380D02*
X127410000Y-112296190D01*
X127171904Y-112772380D02*
X127171904Y-111772380D01*
X127552857Y-111772380D01*
X127648095Y-111820000D01*
X127695714Y-111867619D01*
X127743333Y-111962857D01*
X127743333Y-112105714D01*
X127695714Y-112200952D01*
X127648095Y-112248571D01*
X127552857Y-112296190D01*
X127171904Y-112296190D01*
X128695714Y-112772380D02*
X128124285Y-112772380D01*
X128410000Y-112772380D02*
X128410000Y-111772380D01*
X128314761Y-111915238D01*
X128219523Y-112010476D01*
X128124285Y-112058095D01*
X158392380Y-61406904D02*
X159201904Y-61406904D01*
X159297142Y-61359285D01*
X159344761Y-61311666D01*
X159392380Y-61216428D01*
X159392380Y-61025952D01*
X159344761Y-60930714D01*
X159297142Y-60883095D01*
X159201904Y-60835476D01*
X158392380Y-60835476D01*
X159392380Y-59835476D02*
X159392380Y-60406904D01*
X159392380Y-60121190D02*
X158392380Y-60121190D01*
X158535238Y-60216428D01*
X158630476Y-60311666D01*
X158678095Y-60406904D01*
X162697380Y-86809404D02*
X163506904Y-86809404D01*
X163602142Y-86761785D01*
X163649761Y-86714166D01*
X163697380Y-86618928D01*
X163697380Y-86428452D01*
X163649761Y-86333214D01*
X163602142Y-86285595D01*
X163506904Y-86237976D01*
X162697380Y-86237976D01*
X163030714Y-85333214D02*
X163697380Y-85333214D01*
X162649761Y-85571309D02*
X163364047Y-85809404D01*
X163364047Y-85190357D01*
X105414285Y-63706071D02*
X105557142Y-63753690D01*
X105604761Y-63801309D01*
X105652380Y-63896547D01*
X105652380Y-64039404D01*
X105604761Y-64134642D01*
X105557142Y-64182261D01*
X105461904Y-64229880D01*
X105080952Y-64229880D01*
X105080952Y-63229880D01*
X105414285Y-63229880D01*
X105509523Y-63277500D01*
X105557142Y-63325119D01*
X105604761Y-63420357D01*
X105604761Y-63515595D01*
X105557142Y-63610833D01*
X105509523Y-63658452D01*
X105414285Y-63706071D01*
X105080952Y-63706071D01*
X105938095Y-63229880D02*
X106509523Y-63229880D01*
X106223809Y-64229880D02*
X106223809Y-63229880D01*
X107366666Y-64229880D02*
X106795238Y-64229880D01*
X107080952Y-64229880D02*
X107080952Y-63229880D01*
X106985714Y-63372738D01*
X106890476Y-63467976D01*
X106795238Y-63515595D01*
X152038571Y-111720952D02*
X152086190Y-111578095D01*
X152133809Y-111530476D01*
X152229047Y-111482857D01*
X152371904Y-111482857D01*
X152467142Y-111530476D01*
X152514761Y-111578095D01*
X152562380Y-111673333D01*
X152562380Y-112054285D01*
X151562380Y-112054285D01*
X151562380Y-111720952D01*
X151610000Y-111625714D01*
X151657619Y-111578095D01*
X151752857Y-111530476D01*
X151848095Y-111530476D01*
X151943333Y-111578095D01*
X151990952Y-111625714D01*
X152038571Y-111720952D01*
X152038571Y-112054285D01*
X151562380Y-111149523D02*
X151562380Y-110482857D01*
X152562380Y-111149523D01*
X152562380Y-110482857D01*
X152562380Y-109578095D02*
X152562380Y-110149523D01*
X152562380Y-109863809D02*
X151562380Y-109863809D01*
X151705238Y-109959047D01*
X151800476Y-110054285D01*
X151848095Y-110149523D01*
X156841428Y-115030952D02*
X156841428Y-114269047D01*
X157222380Y-114650000D02*
X156460476Y-114650000D01*
X189566904Y-99532380D02*
X189566904Y-98532380D01*
X189805000Y-98532380D01*
X189947857Y-98580000D01*
X190043095Y-98675238D01*
X190090714Y-98770476D01*
X190138333Y-98960952D01*
X190138333Y-99103809D01*
X190090714Y-99294285D01*
X190043095Y-99389523D01*
X189947857Y-99484761D01*
X189805000Y-99532380D01*
X189566904Y-99532380D01*
X190471666Y-98532380D02*
X191090714Y-98532380D01*
X190757380Y-98913333D01*
X190900238Y-98913333D01*
X190995476Y-98960952D01*
X191043095Y-99008571D01*
X191090714Y-99103809D01*
X191090714Y-99341904D01*
X191043095Y-99437142D01*
X190995476Y-99484761D01*
X190900238Y-99532380D01*
X190614523Y-99532380D01*
X190519285Y-99484761D01*
X190471666Y-99437142D01*
X127966904Y-116932380D02*
X127966904Y-115932380D01*
X128205000Y-115932380D01*
X128347857Y-115980000D01*
X128443095Y-116075238D01*
X128490714Y-116170476D01*
X128538333Y-116360952D01*
X128538333Y-116503809D01*
X128490714Y-116694285D01*
X128443095Y-116789523D01*
X128347857Y-116884761D01*
X128205000Y-116932380D01*
X127966904Y-116932380D01*
X129490714Y-116932380D02*
X128919285Y-116932380D01*
X129205000Y-116932380D02*
X129205000Y-115932380D01*
X129109761Y-116075238D01*
X129014523Y-116170476D01*
X128919285Y-116218095D01*
D11*
X171680000Y-90520000D02*
X175520000Y-90520000D01*
X171680000Y-88680000D02*
X175520000Y-88680000D01*
X135260000Y-115315000D02*
X135260000Y-112595000D01*
X147560000Y-122175000D02*
X147560000Y-124895000D01*
X147560000Y-124895000D02*
X135260000Y-124895000D01*
X147560000Y-117175000D02*
X147560000Y-120315000D01*
X135260000Y-120315000D02*
X135260000Y-117175000D01*
X135260000Y-124895000D02*
X135260000Y-122175000D01*
X135260000Y-112595000D02*
X147560000Y-112595000D01*
X147560000Y-112595000D02*
X147560000Y-115315000D01*
X146089050Y-118785000D02*
G75*
G03*
X146089050Y-118785000I-4579050J0D01*
G01*
X127070000Y-100604000D02*
X127070000Y-100760000D01*
X127070000Y-102920000D02*
X127070000Y-103076000D01*
X127070000Y-103075516D02*
G75*
G03*
X130302335Y-102918608I1560000J1235516D01*
G01*
X130302335Y-100761392D02*
G75*
G03*
X127070000Y-100604484I-1672335J-1078608D01*
G01*
X127589039Y-102920000D02*
G75*
G03*
X129671130Y-102919837I1040961J1080000D01*
G01*
X129671130Y-100760163D02*
G75*
G03*
X127589039Y-100760000I-1041130J-1079837D01*
G01*
X147766800Y-91104200D02*
X143926800Y-91104200D01*
X147766800Y-92944200D02*
X143926800Y-92944200D01*
X171040000Y-112850000D02*
X183340000Y-112850000D01*
X183340000Y-125150000D02*
X171040000Y-125150000D01*
X171040000Y-125150000D02*
X171040000Y-122430000D01*
X183340000Y-112850000D02*
X183340000Y-115570000D01*
X171040000Y-120570000D02*
X171040000Y-117430000D01*
X183340000Y-117430000D02*
X183340000Y-120570000D01*
X183340000Y-122430000D02*
X183340000Y-125150000D01*
X171040000Y-115570000D02*
X171040000Y-112850000D01*
X181669050Y-118960000D02*
G75*
G03*
X181669050Y-118960000I-4579050J0D01*
G01*
X189345000Y-121320000D02*
X189345000Y-121476000D01*
X189345000Y-119004000D02*
X189345000Y-119160000D01*
X191946130Y-119160163D02*
G75*
G03*
X189864039Y-119160000I-1041130J-1079837D01*
G01*
X192577335Y-119161392D02*
G75*
G03*
X189345000Y-119004484I-1672335J-1078608D01*
G01*
X189864039Y-121320000D02*
G75*
G03*
X191946130Y-121319837I1040961J1080000D01*
G01*
X189345000Y-121475516D02*
G75*
G03*
X192577335Y-121318608I1560000J1235516D01*
G01*
X126790000Y-97760000D02*
X130630000Y-97760000D01*
X126790000Y-95920000D02*
X130630000Y-95920000D01*
X170995000Y-98010000D02*
X170995000Y-95290000D01*
X183295000Y-107590000D02*
X170995000Y-107590000D01*
X170995000Y-107590000D02*
X170995000Y-104870000D01*
X170995000Y-103010000D02*
X170995000Y-99870000D01*
X183295000Y-95290000D02*
X183295000Y-98010000D01*
X170995000Y-95290000D02*
X183295000Y-95290000D01*
X183295000Y-104870000D02*
X183295000Y-107590000D01*
X183295000Y-99870000D02*
X183295000Y-103010000D01*
X181624050Y-101400000D02*
G75*
G03*
X181624050Y-101400000I-4579050J0D01*
G01*
X147755000Y-99235000D02*
X147755000Y-102375000D01*
X135455000Y-102375000D02*
X135455000Y-99235000D01*
X135455000Y-106955000D02*
X135455000Y-104235000D01*
X147755000Y-106955000D02*
X135455000Y-106955000D01*
X147755000Y-94655000D02*
X147755000Y-97375000D01*
X147755000Y-104235000D02*
X147755000Y-106955000D01*
X135455000Y-94655000D02*
X147755000Y-94655000D01*
X135455000Y-97375000D02*
X135455000Y-94655000D01*
X146284050Y-100845000D02*
G75*
G03*
X146284050Y-100845000I-4579050J0D01*
G01*
X189190000Y-116560000D02*
X193030000Y-116560000D01*
X189190000Y-114720000D02*
X193030000Y-114720000D01*
X141683700Y-68982300D02*
X154403700Y-68982300D01*
X146300900Y-78464700D02*
X149983900Y-78464700D01*
X154403700Y-68982300D02*
X154403700Y-88202300D01*
X141683700Y-68982300D02*
X141683700Y-88202300D01*
X146123100Y-78566300D02*
X146123100Y-83468500D01*
X146123100Y-73029100D02*
X146123100Y-78388500D01*
X146300900Y-73003700D02*
X149983900Y-73003700D01*
X141683700Y-88202300D02*
X154403700Y-88202300D01*
X142163700Y-88552300D02*
X143773700Y-88552300D01*
X150161700Y-78566300D02*
X150161700Y-83468500D01*
X150161700Y-73029100D02*
X150161700Y-78388500D01*
X146300900Y-83468500D02*
X149983900Y-83468500D01*
X151506167Y-83654767D02*
G75*
G03*
X151506167Y-83654767I-472467J0D01*
G01*
X103100000Y-71060000D02*
X103100000Y-109290000D01*
X105770000Y-106620000D02*
X103100000Y-106620000D01*
X116060000Y-101410000D02*
X116060000Y-111830000D01*
X103100000Y-109290000D02*
X108180000Y-109290000D01*
X121140000Y-109290000D02*
X121140000Y-65850000D01*
X118470000Y-68520000D02*
X118470000Y-106620000D01*
X121140000Y-65850000D02*
X103100000Y-65850000D01*
X105770000Y-71060000D02*
X103100000Y-71060000D01*
X121140000Y-109290000D02*
X116060000Y-109290000D01*
X108180000Y-101410000D02*
X116060000Y-101410000D01*
X103100000Y-65850000D02*
X103100000Y-68520000D01*
X105770000Y-71060000D02*
X105770000Y-106620000D01*
X116060000Y-111830000D02*
X108180000Y-111830000D01*
X108180000Y-111830000D02*
X108180000Y-101410000D01*
X105770000Y-68520000D02*
X103100000Y-68520000D01*
X118470000Y-106620000D02*
X121140000Y-106620000D01*
X105770000Y-71060000D02*
X105770000Y-68520000D01*
X118470000Y-68520000D02*
X121140000Y-68520000D01*
X129837500Y-52600000D02*
X117537500Y-52600000D01*
X117537500Y-52600000D02*
X117537500Y-58400000D01*
X117537500Y-58400000D02*
X129837500Y-58400000D01*
X129837500Y-58400000D02*
X129837500Y-52600000D01*
X188390000Y-96320000D02*
X192230000Y-96320000D01*
X188390000Y-98160000D02*
X192230000Y-98160000D01*
D12*
X180580000Y-58895000D02*
X180580000Y-65245000D01*
X161030000Y-58895000D02*
X161030000Y-65245000D01*
D13*
X179795000Y-57035000D02*
G75*
G03*
X179795000Y-57035000I-100000J0D01*
G01*
D11*
X126390000Y-113320000D02*
X130230000Y-113320000D01*
X126390000Y-115160000D02*
X130230000Y-115160000D01*
D12*
X157880000Y-58895000D02*
X157880000Y-65245000D01*
X138330000Y-58895000D02*
X138330000Y-65245000D01*
D13*
X157095000Y-57035000D02*
G75*
G03*
X157095000Y-57035000I-100000J0D01*
G01*
D11*
X168884400Y-72894300D02*
X168884400Y-78253700D01*
X164925000Y-88417500D02*
X166535000Y-88417500D01*
X172923000Y-72894300D02*
X172923000Y-78253700D01*
X169062200Y-83333700D02*
X172745200Y-83333700D01*
X169062200Y-78329900D02*
X172745200Y-78329900D01*
X169062200Y-72868900D02*
X172745200Y-72868900D01*
X164445000Y-68847500D02*
X177165000Y-68847500D01*
X164445000Y-68847500D02*
X164445000Y-88067500D01*
X177165000Y-68847500D02*
X177165000Y-88067500D01*
X172923000Y-78431500D02*
X172923000Y-83333700D01*
X168884400Y-78431500D02*
X168884400Y-83333700D01*
X164445000Y-88067500D02*
X177165000Y-88067500D01*
X174267467Y-83519967D02*
G75*
G03*
X174267467Y-83519967I-472467J0D01*
G01*
X109740000Y-50467500D02*
X107740000Y-50467500D01*
X104410000Y-51967500D02*
X104660000Y-50467500D01*
X100010000Y-50467500D02*
X100010000Y-62687500D01*
X112390000Y-53767500D02*
X100010000Y-53767500D01*
X100010000Y-51967500D02*
X112390000Y-51967500D01*
X107990000Y-51967500D02*
X109490000Y-51967500D01*
X112390000Y-51967500D02*
X112390000Y-53767500D01*
X107740000Y-50467500D02*
X107990000Y-51967500D01*
X108440000Y-63487500D02*
X108740000Y-62887500D01*
X100010000Y-53767500D02*
X100010000Y-51967500D01*
X104660000Y-50467500D02*
X102660000Y-50467500D01*
X100010000Y-62687500D02*
X112390000Y-62687500D01*
X109040000Y-63487500D02*
X108440000Y-63487500D01*
X108740000Y-62887500D02*
X109040000Y-63487500D01*
X109490000Y-51967500D02*
X109740000Y-50467500D01*
X102660000Y-50467500D02*
X102910000Y-51967500D01*
X112390000Y-50467500D02*
X100010000Y-50467500D01*
X102910000Y-51967500D02*
X104410000Y-51967500D01*
X112390000Y-62687500D02*
X112390000Y-50467500D01*
X165410000Y-110840000D02*
G75*
G03*
X165410000Y-110840000I-6100000J0D01*
G01*
X188745000Y-100804000D02*
X188745000Y-100960000D01*
X188745000Y-103120000D02*
X188745000Y-103276000D01*
X189264039Y-103120000D02*
G75*
G03*
X191346130Y-103119837I1040961J1080000D01*
G01*
X188745000Y-103275516D02*
G75*
G03*
X191977335Y-103118608I1560000J1235516D01*
G01*
X191977335Y-100961392D02*
G75*
G03*
X188745000Y-100804484I-1672335J-1078608D01*
G01*
X191346130Y-100960163D02*
G75*
G03*
X189264039Y-100960000I-1041130J-1079837D01*
G01*
X127145000Y-118204000D02*
X127145000Y-118360000D01*
X127145000Y-120520000D02*
X127145000Y-120676000D01*
X127145000Y-120675516D02*
G75*
G03*
X130377335Y-120518608I1560000J1235516D01*
G01*
X129746130Y-118360163D02*
G75*
G03*
X127664039Y-118360000I-1041130J-1079837D01*
G01*
X127664039Y-120520000D02*
G75*
G03*
X129746130Y-120519837I1040961J1080000D01*
G01*
X130377335Y-118361392D02*
G75*
G03*
X127145000Y-118204484I-1672335J-1078608D01*
G01*
%LPC*%
D14*
X171060000Y-89600000D03*
D15*
X176140000Y-89600000D03*
D16*
X147660000Y-116245000D03*
X135160000Y-116245000D03*
X147660000Y-121245000D03*
X135160000Y-121245000D03*
D17*
X127360000Y-101840000D03*
D18*
X129900000Y-101840000D03*
D14*
X148386800Y-92024200D03*
D15*
X143306800Y-92024200D03*
D16*
X183440000Y-121500000D03*
X170940000Y-121500000D03*
X183440000Y-116500000D03*
X170940000Y-116500000D03*
D17*
X189635000Y-120240000D03*
D18*
X192175000Y-120240000D03*
D14*
X126170000Y-96840000D03*
D15*
X131250000Y-96840000D03*
D16*
X170895000Y-103940000D03*
X183395000Y-103940000D03*
X183395000Y-98940000D03*
X170895000Y-98940000D03*
X135355000Y-98305000D03*
X147855000Y-98305000D03*
X135355000Y-103305000D03*
X147855000Y-103305000D03*
D14*
X188570000Y-115640000D03*
D15*
X193650000Y-115640000D03*
D19*
X142963700Y-86212300D03*
D20*
X145503700Y-86212300D03*
X148043700Y-86212300D03*
X150583700Y-86212300D03*
X153123700Y-86212300D03*
X153123700Y-70972300D03*
X150583700Y-70972300D03*
X148043700Y-70972300D03*
X145503700Y-70972300D03*
X142963700Y-70972300D03*
D19*
X104500000Y-69790000D03*
D21*
X104500000Y-72330000D03*
X104500000Y-74870000D03*
X104500000Y-77410000D03*
X104500000Y-79950000D03*
X104500000Y-82490000D03*
X104500000Y-85030000D03*
X104500000Y-87570000D03*
X104500000Y-90110000D03*
X104500000Y-92650000D03*
X104500000Y-95190000D03*
X104500000Y-97730000D03*
X104500000Y-100270000D03*
X104500000Y-102810000D03*
X104500000Y-105350000D03*
X119740000Y-105350000D03*
X119740000Y-102810000D03*
X119740000Y-100270000D03*
X119740000Y-97730000D03*
X119740000Y-95190000D03*
X119740000Y-92650000D03*
X119740000Y-90110000D03*
X119740000Y-87570000D03*
X119740000Y-85030000D03*
X119740000Y-82490000D03*
X119740000Y-79950000D03*
X119740000Y-77410000D03*
X119740000Y-74870000D03*
X119740000Y-72330000D03*
X119740000Y-69790000D03*
D22*
X129337500Y-55500000D03*
X118037500Y-55500000D03*
D23*
X126737500Y-55500000D03*
X123737500Y-55500000D03*
X120737500Y-55500000D03*
D14*
X187770000Y-97240000D03*
D15*
X192850000Y-97240000D03*
D24*
X179695000Y-58100000D03*
D25*
X177155000Y-58100000D03*
X174615000Y-58100000D03*
X172075000Y-58100000D03*
X169535000Y-58100000D03*
X166995000Y-58100000D03*
X164455000Y-58100000D03*
X161915000Y-58100000D03*
X161915000Y-66040000D03*
X164455000Y-66040000D03*
X166995000Y-66040000D03*
X169535000Y-66040000D03*
X172075000Y-66040000D03*
X174615000Y-66040000D03*
X177155000Y-66040000D03*
X179695000Y-66040000D03*
D14*
X125770000Y-114240000D03*
D15*
X130850000Y-114240000D03*
D24*
X156995000Y-58100000D03*
D25*
X154455000Y-58100000D03*
X151915000Y-58100000D03*
X149375000Y-58100000D03*
X146835000Y-58100000D03*
X144295000Y-58100000D03*
X141755000Y-58100000D03*
X139215000Y-58100000D03*
X139215000Y-66040000D03*
X141755000Y-66040000D03*
X144295000Y-66040000D03*
X146835000Y-66040000D03*
X149375000Y-66040000D03*
X151915000Y-66040000D03*
X154455000Y-66040000D03*
X156995000Y-66040000D03*
D19*
X165725000Y-86077500D03*
D20*
X168265000Y-86077500D03*
X170805000Y-86077500D03*
X173345000Y-86077500D03*
X175885000Y-86077500D03*
X175885000Y-70837500D03*
X173345000Y-70837500D03*
X170805000Y-70837500D03*
X168265000Y-70837500D03*
X165725000Y-70837500D03*
D26*
X108740000Y-60577500D03*
D27*
X103660000Y-60577500D03*
D28*
X159310000Y-114640000D03*
D29*
X159310000Y-107040000D03*
D17*
X189035000Y-102040000D03*
D18*
X191575000Y-102040000D03*
D17*
X127435000Y-119440000D03*
D18*
X129975000Y-119440000D03*
M02*
