M48
; DRILL file {KiCad (6.0.11)} date Fri Feb 10 17:53:28 2023
; FORMAT={-:-/ absolute / metric / decimal}
; #@! TF.CreationDate,2023-02-10T17:53:28-04:00
; #@! TF.GenerationSoftware,Kicad,Pcbnew,(6.0.11)
; #@! TF.FileFunction,Plated,1,2,PTH
FMAT,2
METRIC
; #@! TA.AperFunction,Plated,PTH,ViaDrill
T1C0.400
; #@! TA.AperFunction,Plated,PTH,ComponentDrill
T2C0.700
; #@! TA.AperFunction,Plated,PTH,ComponentDrill
T3C0.762
; #@! TA.AperFunction,Plated,PTH,ComponentDrill
T4C0.780
; #@! TA.AperFunction,Plated,PTH,ComponentDrill
T5C0.800
; #@! TA.AperFunction,Plated,PTH,ComponentDrill
T6C0.900
; #@! TA.AperFunction,Plated,PTH,ComponentDrill
T7C1.000
; #@! TA.AperFunction,Plated,PTH,ComponentDrill
T8C1.300
; #@! TA.AperFunction,Plated,PTH,ComponentDrill
T9C1.400
%
G90
G05
T1
X146.103Y-68.269
T2
X125.77Y-114.24
X126.17Y-96.84
X130.85Y-114.24
X131.25Y-96.84
X143.307Y-92.024
X148.387Y-92.024
X171.06Y-89.6
X176.14Y-89.6
X187.77Y-97.24
X188.57Y-115.64
X192.85Y-97.24
X193.65Y-115.64
T3
X120.737Y-55.5
X123.737Y-55.5
X126.737Y-55.5
T4
X139.215Y-58.1
X139.215Y-66.04
X141.755Y-58.1
X141.755Y-66.04
X144.295Y-58.1
X144.295Y-66.04
X146.835Y-58.1
X146.835Y-66.04
X149.375Y-58.1
X149.375Y-66.04
X151.915Y-58.1
X151.915Y-66.04
X154.455Y-58.1
X154.455Y-66.04
X156.995Y-58.1
X156.995Y-66.04
X161.915Y-58.1
X161.915Y-66.04
X164.455Y-58.1
X164.455Y-66.04
X166.995Y-58.1
X166.995Y-66.04
X169.535Y-58.1
X169.535Y-66.04
X172.075Y-58.1
X172.075Y-66.04
X174.615Y-58.1
X174.615Y-66.04
X177.155Y-58.1
X177.155Y-66.04
X179.695Y-58.1
X179.695Y-66.04
T5
X142.964Y-70.972
X142.964Y-86.212
X145.504Y-70.972
X145.504Y-86.212
X148.044Y-70.972
X148.044Y-86.212
X150.584Y-70.972
X150.584Y-86.212
X153.124Y-70.972
X153.124Y-86.212
X165.725Y-70.837
X165.725Y-86.078
X168.265Y-70.837
X168.265Y-86.078
X170.805Y-70.837
X170.805Y-86.078
X173.345Y-70.837
X173.345Y-86.078
X175.885Y-70.837
X175.885Y-86.078
T6
X127.36Y-101.84
X127.435Y-119.44
X129.9Y-101.84
X129.975Y-119.44
X189.035Y-102.04
X189.635Y-120.24
X191.575Y-102.04
X192.175Y-120.24
T7
X104.5Y-69.79
X104.5Y-72.33
X104.5Y-74.87
X104.5Y-77.41
X104.5Y-79.95
X104.5Y-82.49
X104.5Y-85.03
X104.5Y-87.57
X104.5Y-90.11
X104.5Y-92.65
X104.5Y-95.19
X104.5Y-97.73
X104.5Y-100.27
X104.5Y-102.81
X104.5Y-105.35
X119.74Y-69.79
X119.74Y-72.33
X119.74Y-74.87
X119.74Y-77.41
X119.74Y-79.95
X119.74Y-82.49
X119.74Y-85.03
X119.74Y-87.57
X119.74Y-90.11
X119.74Y-92.65
X119.74Y-95.19
X119.74Y-97.73
X119.74Y-100.27
X119.74Y-102.81
X119.74Y-105.35
X159.31Y-107.04
X159.31Y-114.64
T8
X135.16Y-116.245
X135.16Y-121.245
X135.355Y-98.305
X135.355Y-103.305
X147.66Y-116.245
X147.66Y-121.245
X147.855Y-98.305
X147.855Y-103.305
X170.895Y-98.94
X170.895Y-103.94
X170.94Y-116.5
X170.94Y-121.5
X183.395Y-98.94
X183.395Y-103.94
X183.44Y-116.5
X183.44Y-121.5
T9
X103.66Y-60.578
X108.74Y-60.578
T0
M30
