G04 #@! TF.GenerationSoftware,KiCad,Pcbnew,(6.0.11)*
G04 #@! TF.CreationDate,2023-02-10T17:49:21-04:00*
G04 #@! TF.ProjectId,simon_dice_2_layer,73696d6f-6e5f-4646-9963-655f325f6c61,rev?*
G04 #@! TF.SameCoordinates,Original*
G04 #@! TF.FileFunction,Soldermask,Top*
G04 #@! TF.FilePolarity,Negative*
%FSLAX46Y46*%
G04 Gerber Fmt 4.6, Leading zero omitted, Abs format (unit mm)*
G04 Created by KiCad (PCBNEW (6.0.11)) date 2023-02-10 17:49:21*
%MOMM*%
%LPD*%
G01*
G04 APERTURE LIST*
G04 Aperture macros list*
%AMRoundRect*
0 Rectangle with rounded corners*
0 $1 Rounding radius*
0 $2 $3 $4 $5 $6 $7 $8 $9 X,Y pos of 4 corners*
0 Add a 4 corners polygon primitive as box body*
4,1,4,$2,$3,$4,$5,$6,$7,$8,$9,$2,$3,0*
0 Add four circle primitives for the rounded corners*
1,1,$1+$1,$2,$3*
1,1,$1+$1,$4,$5*
1,1,$1+$1,$6,$7*
1,1,$1+$1,$8,$9*
0 Add four rect primitives between the rounded corners*
20,1,$1+$1,$2,$3,$4,$5,0*
20,1,$1+$1,$4,$5,$6,$7,0*
20,1,$1+$1,$6,$7,$8,$9,0*
20,1,$1+$1,$8,$9,$2,$3,0*%
G04 Aperture macros list end*
%ADD10C,1.400000*%
%ADD11O,1.400000X1.400000*%
%ADD12O,3.048000X1.850000*%
%ADD13R,1.800000X1.800000*%
%ADD14C,1.800000*%
%ADD15R,1.600000X1.600000*%
%ADD16C,1.600000*%
%ADD17O,1.600000X1.600000*%
%ADD18R,0.800000X1.600000*%
%ADD19C,1.362000*%
%ADD20R,1.130000X1.130000*%
%ADD21C,1.130000*%
%ADD22RoundRect,0.249999X0.790001X1.550001X-0.790001X1.550001X-0.790001X-1.550001X0.790001X-1.550001X0*%
%ADD23O,2.080000X3.600000*%
%ADD24R,2.000000X2.000000*%
%ADD25C,2.000000*%
G04 APERTURE END LIST*
D10*
X171060000Y-89600000D03*
D11*
X176140000Y-89600000D03*
D12*
X147660000Y-116245000D03*
X135160000Y-116245000D03*
X147660000Y-121245000D03*
X135160000Y-121245000D03*
D13*
X127360000Y-101840000D03*
D14*
X129900000Y-101840000D03*
D10*
X148386800Y-92024200D03*
D11*
X143306800Y-92024200D03*
D12*
X183440000Y-121500000D03*
X170940000Y-121500000D03*
X183440000Y-116500000D03*
X170940000Y-116500000D03*
D13*
X189635000Y-120240000D03*
D14*
X192175000Y-120240000D03*
D10*
X126170000Y-96840000D03*
D11*
X131250000Y-96840000D03*
D12*
X170895000Y-103940000D03*
X183395000Y-103940000D03*
X183395000Y-98940000D03*
X170895000Y-98940000D03*
X135355000Y-98305000D03*
X147855000Y-98305000D03*
X135355000Y-103305000D03*
X147855000Y-103305000D03*
D10*
X188570000Y-115640000D03*
D11*
X193650000Y-115640000D03*
D15*
X142963700Y-86212300D03*
D16*
X145503700Y-86212300D03*
X148043700Y-86212300D03*
X150583700Y-86212300D03*
X153123700Y-86212300D03*
X153123700Y-70972300D03*
X150583700Y-70972300D03*
X148043700Y-70972300D03*
X145503700Y-70972300D03*
X142963700Y-70972300D03*
D15*
X104500000Y-69790000D03*
D17*
X104500000Y-72330000D03*
X104500000Y-74870000D03*
X104500000Y-77410000D03*
X104500000Y-79950000D03*
X104500000Y-82490000D03*
X104500000Y-85030000D03*
X104500000Y-87570000D03*
X104500000Y-90110000D03*
X104500000Y-92650000D03*
X104500000Y-95190000D03*
X104500000Y-97730000D03*
X104500000Y-100270000D03*
X104500000Y-102810000D03*
X104500000Y-105350000D03*
X119740000Y-105350000D03*
X119740000Y-102810000D03*
X119740000Y-100270000D03*
X119740000Y-97730000D03*
X119740000Y-95190000D03*
X119740000Y-92650000D03*
X119740000Y-90110000D03*
X119740000Y-87570000D03*
X119740000Y-85030000D03*
X119740000Y-82490000D03*
X119740000Y-79950000D03*
X119740000Y-77410000D03*
X119740000Y-74870000D03*
X119740000Y-72330000D03*
X119740000Y-69790000D03*
D18*
X129337500Y-55500000D03*
X118037500Y-55500000D03*
D19*
X126737500Y-55500000D03*
X123737500Y-55500000D03*
X120737500Y-55500000D03*
D10*
X187770000Y-97240000D03*
D11*
X192850000Y-97240000D03*
D20*
X179695000Y-58100000D03*
D21*
X177155000Y-58100000D03*
X174615000Y-58100000D03*
X172075000Y-58100000D03*
X169535000Y-58100000D03*
X166995000Y-58100000D03*
X164455000Y-58100000D03*
X161915000Y-58100000D03*
X161915000Y-66040000D03*
X164455000Y-66040000D03*
X166995000Y-66040000D03*
X169535000Y-66040000D03*
X172075000Y-66040000D03*
X174615000Y-66040000D03*
X177155000Y-66040000D03*
X179695000Y-66040000D03*
D10*
X125770000Y-114240000D03*
D11*
X130850000Y-114240000D03*
D20*
X156995000Y-58100000D03*
D21*
X154455000Y-58100000D03*
X151915000Y-58100000D03*
X149375000Y-58100000D03*
X146835000Y-58100000D03*
X144295000Y-58100000D03*
X141755000Y-58100000D03*
X139215000Y-58100000D03*
X139215000Y-66040000D03*
X141755000Y-66040000D03*
X144295000Y-66040000D03*
X146835000Y-66040000D03*
X149375000Y-66040000D03*
X151915000Y-66040000D03*
X154455000Y-66040000D03*
X156995000Y-66040000D03*
D15*
X165725000Y-86077500D03*
D16*
X168265000Y-86077500D03*
X170805000Y-86077500D03*
X173345000Y-86077500D03*
X175885000Y-86077500D03*
X175885000Y-70837500D03*
X173345000Y-70837500D03*
X170805000Y-70837500D03*
X168265000Y-70837500D03*
X165725000Y-70837500D03*
D22*
X108740000Y-60577500D03*
D23*
X103660000Y-60577500D03*
D24*
X159310000Y-114640000D03*
D25*
X159310000Y-107040000D03*
D13*
X189035000Y-102040000D03*
D14*
X191575000Y-102040000D03*
D13*
X127435000Y-119440000D03*
D14*
X129975000Y-119440000D03*
M02*
