G04 #@! TF.GenerationSoftware,KiCad,Pcbnew,(6.0.11)*
G04 #@! TF.CreationDate,2023-02-10T17:49:21-04:00*
G04 #@! TF.ProjectId,simon_dice_2_layer,73696d6f-6e5f-4646-9963-655f325f6c61,rev?*
G04 #@! TF.SameCoordinates,Original*
G04 #@! TF.FileFunction,Copper,L1,Top*
G04 #@! TF.FilePolarity,Positive*
%FSLAX46Y46*%
G04 Gerber Fmt 4.6, Leading zero omitted, Abs format (unit mm)*
G04 Created by KiCad (PCBNEW (6.0.11)) date 2023-02-10 17:49:21*
%MOMM*%
%LPD*%
G01*
G04 APERTURE LIST*
G04 Aperture macros list*
%AMRoundRect*
0 Rectangle with rounded corners*
0 $1 Rounding radius*
0 $2 $3 $4 $5 $6 $7 $8 $9 X,Y pos of 4 corners*
0 Add a 4 corners polygon primitive as box body*
4,1,4,$2,$3,$4,$5,$6,$7,$8,$9,$2,$3,0*
0 Add four circle primitives for the rounded corners*
1,1,$1+$1,$2,$3*
1,1,$1+$1,$4,$5*
1,1,$1+$1,$6,$7*
1,1,$1+$1,$8,$9*
0 Add four rect primitives between the rounded corners*
20,1,$1+$1,$2,$3,$4,$5,0*
20,1,$1+$1,$4,$5,$6,$7,0*
20,1,$1+$1,$6,$7,$8,$9,0*
20,1,$1+$1,$8,$9,$2,$3,0*%
G04 Aperture macros list end*
G04 #@! TA.AperFunction,ComponentPad*
%ADD10C,1.400000*%
G04 #@! TD*
G04 #@! TA.AperFunction,ComponentPad*
%ADD11O,1.400000X1.400000*%
G04 #@! TD*
G04 #@! TA.AperFunction,ComponentPad*
%ADD12O,3.048000X1.850000*%
G04 #@! TD*
G04 #@! TA.AperFunction,ComponentPad*
%ADD13R,1.800000X1.800000*%
G04 #@! TD*
G04 #@! TA.AperFunction,ComponentPad*
%ADD14C,1.800000*%
G04 #@! TD*
G04 #@! TA.AperFunction,ComponentPad*
%ADD15R,1.600000X1.600000*%
G04 #@! TD*
G04 #@! TA.AperFunction,ComponentPad*
%ADD16C,1.600000*%
G04 #@! TD*
G04 #@! TA.AperFunction,ComponentPad*
%ADD17O,1.600000X1.600000*%
G04 #@! TD*
G04 #@! TA.AperFunction,WasherPad*
%ADD18R,0.800000X1.600000*%
G04 #@! TD*
G04 #@! TA.AperFunction,ComponentPad*
%ADD19C,1.362000*%
G04 #@! TD*
G04 #@! TA.AperFunction,ComponentPad*
%ADD20R,1.130000X1.130000*%
G04 #@! TD*
G04 #@! TA.AperFunction,ComponentPad*
%ADD21C,1.130000*%
G04 #@! TD*
G04 #@! TA.AperFunction,ComponentPad*
%ADD22RoundRect,0.249999X0.790001X1.550001X-0.790001X1.550001X-0.790001X-1.550001X0.790001X-1.550001X0*%
G04 #@! TD*
G04 #@! TA.AperFunction,ComponentPad*
%ADD23O,2.080000X3.600000*%
G04 #@! TD*
G04 #@! TA.AperFunction,ComponentPad*
%ADD24R,2.000000X2.000000*%
G04 #@! TD*
G04 #@! TA.AperFunction,ComponentPad*
%ADD25C,2.000000*%
G04 #@! TD*
G04 #@! TA.AperFunction,ViaPad*
%ADD26C,0.800000*%
G04 #@! TD*
G04 #@! TA.AperFunction,Conductor*
%ADD27C,1.500000*%
G04 #@! TD*
G04 APERTURE END LIST*
D10*
X171060000Y-89600000D03*
D11*
X176140000Y-89600000D03*
D12*
X147660000Y-116245000D03*
X135160000Y-116245000D03*
X147660000Y-121245000D03*
X135160000Y-121245000D03*
D13*
X127360000Y-101840000D03*
D14*
X129900000Y-101840000D03*
D10*
X148386800Y-92024200D03*
D11*
X143306800Y-92024200D03*
D12*
X183440000Y-121500000D03*
X170940000Y-121500000D03*
X183440000Y-116500000D03*
X170940000Y-116500000D03*
D13*
X189635000Y-120240000D03*
D14*
X192175000Y-120240000D03*
D10*
X126170000Y-96840000D03*
D11*
X131250000Y-96840000D03*
D12*
X170895000Y-103940000D03*
X183395000Y-103940000D03*
X183395000Y-98940000D03*
X170895000Y-98940000D03*
X135355000Y-98305000D03*
X147855000Y-98305000D03*
X135355000Y-103305000D03*
X147855000Y-103305000D03*
D10*
X188570000Y-115640000D03*
D11*
X193650000Y-115640000D03*
D15*
X142963700Y-86212300D03*
D16*
X145503700Y-86212300D03*
X148043700Y-86212300D03*
X150583700Y-86212300D03*
X153123700Y-86212300D03*
X153123700Y-70972300D03*
X150583700Y-70972300D03*
X148043700Y-70972300D03*
X145503700Y-70972300D03*
X142963700Y-70972300D03*
D15*
X104500000Y-69790000D03*
D17*
X104500000Y-72330000D03*
X104500000Y-74870000D03*
X104500000Y-77410000D03*
X104500000Y-79950000D03*
X104500000Y-82490000D03*
X104500000Y-85030000D03*
X104500000Y-87570000D03*
X104500000Y-90110000D03*
X104500000Y-92650000D03*
X104500000Y-95190000D03*
X104500000Y-97730000D03*
X104500000Y-100270000D03*
X104500000Y-102810000D03*
X104500000Y-105350000D03*
X119740000Y-105350000D03*
X119740000Y-102810000D03*
X119740000Y-100270000D03*
X119740000Y-97730000D03*
X119740000Y-95190000D03*
X119740000Y-92650000D03*
X119740000Y-90110000D03*
X119740000Y-87570000D03*
X119740000Y-85030000D03*
X119740000Y-82490000D03*
X119740000Y-79950000D03*
X119740000Y-77410000D03*
X119740000Y-74870000D03*
X119740000Y-72330000D03*
X119740000Y-69790000D03*
D18*
X129337500Y-55500000D03*
X118037500Y-55500000D03*
D19*
X126737500Y-55500000D03*
X123737500Y-55500000D03*
X120737500Y-55500000D03*
D10*
X187770000Y-97240000D03*
D11*
X192850000Y-97240000D03*
D20*
X179695000Y-58100000D03*
D21*
X177155000Y-58100000D03*
X174615000Y-58100000D03*
X172075000Y-58100000D03*
X169535000Y-58100000D03*
X166995000Y-58100000D03*
X164455000Y-58100000D03*
X161915000Y-58100000D03*
X161915000Y-66040000D03*
X164455000Y-66040000D03*
X166995000Y-66040000D03*
X169535000Y-66040000D03*
X172075000Y-66040000D03*
X174615000Y-66040000D03*
X177155000Y-66040000D03*
X179695000Y-66040000D03*
D10*
X125770000Y-114240000D03*
D11*
X130850000Y-114240000D03*
D20*
X156995000Y-58100000D03*
D21*
X154455000Y-58100000D03*
X151915000Y-58100000D03*
X149375000Y-58100000D03*
X146835000Y-58100000D03*
X144295000Y-58100000D03*
X141755000Y-58100000D03*
X139215000Y-58100000D03*
X139215000Y-66040000D03*
X141755000Y-66040000D03*
X144295000Y-66040000D03*
X146835000Y-66040000D03*
X149375000Y-66040000D03*
X151915000Y-66040000D03*
X154455000Y-66040000D03*
X156995000Y-66040000D03*
D15*
X165725000Y-86077500D03*
D16*
X168265000Y-86077500D03*
X170805000Y-86077500D03*
X173345000Y-86077500D03*
X175885000Y-86077500D03*
X175885000Y-70837500D03*
X173345000Y-70837500D03*
X170805000Y-70837500D03*
X168265000Y-70837500D03*
X165725000Y-70837500D03*
D22*
X108740000Y-60577500D03*
D23*
X103660000Y-60577500D03*
D24*
X159310000Y-114640000D03*
D25*
X159310000Y-107040000D03*
D13*
X189035000Y-102040000D03*
D14*
X191575000Y-102040000D03*
D13*
X127435000Y-119440000D03*
D14*
X129975000Y-119440000D03*
D26*
X146102800Y-68269000D03*
D27*
X177662100Y-69087100D02*
X174615000Y-66040000D01*
X147660000Y-116245000D02*
X150134300Y-116245000D01*
X159310000Y-114640000D02*
X161260300Y-114640000D01*
X183440000Y-121500000D02*
X170940000Y-121500000D01*
X161260300Y-114640000D02*
X168120300Y-121500000D01*
X177662100Y-86842600D02*
X177662100Y-69087100D01*
X176140000Y-89600000D02*
X176140000Y-87949700D01*
X135160000Y-116245000D02*
X147660000Y-116245000D01*
X180662900Y-69087100D02*
X177662100Y-69087100D01*
X182400000Y-63345000D02*
X182400000Y-67350000D01*
X159310000Y-114640000D02*
X151739300Y-114640000D01*
X177155000Y-58100000D02*
X182400000Y-63345000D01*
X107750000Y-77410000D02*
X112830000Y-72330000D01*
X176555000Y-87949700D02*
X177662100Y-86842600D01*
X151739300Y-114640000D02*
X150134300Y-116245000D01*
X154455000Y-58100000D02*
X151915000Y-60640000D01*
X182400000Y-67350000D02*
X180662900Y-69087100D01*
X151915000Y-60640000D02*
X151915000Y-66040000D01*
X168120300Y-121500000D02*
X170940000Y-121500000D01*
X112830000Y-72330000D02*
X119740000Y-72330000D01*
X103660000Y-60577500D02*
X103660000Y-63160000D01*
X103660000Y-63160000D02*
X112830000Y-72330000D01*
X104500000Y-77410000D02*
X107750000Y-77410000D01*
X176140000Y-87949700D02*
X176555000Y-87949700D01*
X116489300Y-91939300D02*
X116489300Y-106389300D01*
X117900000Y-107800000D02*
X121500000Y-107800000D01*
X127360000Y-101840000D02*
X127360000Y-103690300D01*
X132880700Y-103305000D02*
X132495400Y-103690300D01*
X147855000Y-103305000D02*
X135355000Y-103305000D01*
X125609700Y-103690300D02*
X127360000Y-103690300D01*
X104500000Y-79950000D02*
X116489300Y-91939300D01*
X132495400Y-103690300D02*
X127360000Y-103690300D01*
X116489300Y-106389300D02*
X117900000Y-107800000D01*
X135355000Y-103305000D02*
X132880700Y-103305000D01*
X121500000Y-107800000D02*
X125609700Y-103690300D01*
X187184700Y-100255400D02*
X185869300Y-98940000D01*
X113150000Y-106600000D02*
X116350000Y-109800000D01*
X187184700Y-102040000D02*
X187184700Y-100255400D01*
X161122100Y-98940000D02*
X170895000Y-98940000D01*
X104500000Y-82490000D02*
X106250000Y-84240000D01*
X150262100Y-109800000D02*
X161122100Y-98940000D01*
X106250000Y-84240000D02*
X106250000Y-86000000D01*
X183395000Y-98940000D02*
X185869300Y-98940000D01*
X183395000Y-98940000D02*
X170895000Y-98940000D01*
X106250000Y-86000000D02*
X113150000Y-92900000D01*
X189035000Y-102040000D02*
X187184700Y-102040000D01*
X113150000Y-92900000D02*
X113150000Y-106600000D01*
X116350000Y-109800000D02*
X150262100Y-109800000D01*
X186597350Y-119052650D02*
X186400000Y-119250000D01*
X189635000Y-120240000D02*
X187784700Y-120240000D01*
X99450000Y-85300000D02*
X99720000Y-85030000D01*
X183440000Y-116500000D02*
X180965700Y-116500000D01*
X183440000Y-116500000D02*
X185914300Y-116500000D01*
X185914300Y-118369600D02*
X185914300Y-116500000D01*
X99720000Y-85030000D02*
X104500000Y-85030000D01*
X186400000Y-124400000D02*
X99450000Y-124400000D01*
X187784700Y-120240000D02*
X186597350Y-119052650D01*
X186400000Y-119250000D02*
X186400000Y-124400000D01*
X186597350Y-119052650D02*
X185914300Y-118369600D01*
X99450000Y-124400000D02*
X99450000Y-85300000D01*
X170940000Y-116500000D02*
X180965700Y-116500000D01*
X135160000Y-121245000D02*
X147660000Y-121245000D01*
X110000000Y-95610000D02*
X110000000Y-111950000D01*
X110000000Y-111950000D02*
X154400000Y-111950000D01*
X154400000Y-111950000D02*
X159310000Y-107040000D01*
X104500000Y-90110000D02*
X110000000Y-95610000D01*
X154455000Y-66040000D02*
X155750000Y-67335000D01*
X177155000Y-66040000D02*
X177155000Y-65155000D01*
X145910000Y-82490000D02*
X119740000Y-82490000D01*
X173750000Y-61750000D02*
X158745000Y-61750000D01*
X177155000Y-65155000D02*
X173750000Y-61750000D01*
X158745000Y-61750000D02*
X154455000Y-66040000D01*
X155750000Y-67335000D02*
X155750000Y-72650000D01*
X155750000Y-72650000D02*
X145910000Y-82490000D01*
X137650000Y-53050000D02*
X131200000Y-59500000D01*
X179695000Y-53050000D02*
X137650000Y-53050000D01*
X131200000Y-59500000D02*
X131200000Y-79950000D01*
X179695000Y-58100000D02*
X179695000Y-53050000D01*
X131200000Y-79950000D02*
X119740000Y-79950000D01*
X174615000Y-58100000D02*
X174615000Y-59265000D01*
X179695000Y-64345000D02*
X179695000Y-66040000D01*
X172065000Y-55550000D02*
X154465000Y-55550000D01*
X154465000Y-55550000D02*
X151915000Y-58100000D01*
X174615000Y-59265000D02*
X179695000Y-64345000D01*
X174615000Y-58100000D02*
X172065000Y-55550000D01*
X156995000Y-58100000D02*
X158510300Y-58100000D01*
X158510300Y-58100000D02*
X160053300Y-59643000D01*
X167992000Y-59643000D02*
X169535000Y-58100000D01*
X160053300Y-59643000D02*
X167992000Y-59643000D01*
X134850000Y-60263700D02*
X139513700Y-55600000D01*
X140600000Y-73400000D02*
X134850000Y-67650000D01*
X145503700Y-70972300D02*
X145503700Y-72246300D01*
X139513700Y-55600000D02*
X141795000Y-55600000D01*
X145503700Y-72246300D02*
X144350000Y-73400000D01*
X141795000Y-55600000D02*
X144295000Y-58100000D01*
X144350000Y-73400000D02*
X140600000Y-73400000D01*
X134850000Y-67650000D02*
X134850000Y-60263700D01*
X137697600Y-66745100D02*
X137697600Y-62157400D01*
X141924800Y-70972300D02*
X137697600Y-66745100D01*
X137697600Y-62157400D02*
X141755000Y-58100000D01*
X142963700Y-70972300D02*
X141924800Y-70972300D01*
X141755000Y-66040000D02*
X143984000Y-68269000D01*
X143984000Y-68269000D02*
X146102800Y-68269000D01*
X150728400Y-68577000D02*
X153123700Y-70972300D01*
X146835000Y-66040000D02*
X149372000Y-68577000D01*
X149372000Y-68577000D02*
X150728400Y-68577000D01*
X168265000Y-80093300D02*
X161915000Y-73743300D01*
X168265000Y-86077500D02*
X168265000Y-80093300D01*
X161915000Y-73743300D02*
X161915000Y-66040000D01*
X170570100Y-68062600D02*
X165787400Y-68062600D01*
X165500000Y-68350000D02*
X164455000Y-67305000D01*
X173345000Y-70837500D02*
X170570100Y-68062600D01*
X164455000Y-67305000D02*
X164455000Y-66040000D01*
X165787400Y-68062600D02*
X165500000Y-68350000D01*
X165725000Y-86077500D02*
X165725000Y-84327200D01*
X165725000Y-84327200D02*
X158600000Y-77202200D01*
X164405000Y-63450000D02*
X166995000Y-66040000D01*
X161450000Y-63450000D02*
X164405000Y-63450000D01*
X158600000Y-66300000D02*
X161450000Y-63450000D01*
X158600000Y-77202200D02*
X158600000Y-66300000D01*
M02*
